#!OML:ASF H:\Martial Arts Walks\Project 1\Capture day 1\Session 1\male.ASF
:FULLY-SPECIFIED
:DEGREES
1070
root -2.31667 13.8994 25.0797 6.18862 13.1822 0.377056
lowerback 10.0148 -4.05611 -10.6032
upperback -1.73179 -6.5883 2.53865
thorax -5.98473 -2.82104 9.62007
lowerneck 10.0295 -17.8251 -17.9729
upperneck 5.0149 -26.4336 17.2563
head 4.60472 -13.5531 6.69814
rclavicle -4.81556e-014 1.59028e-014
rhumerus -35.6642 14.55 -76.2346
rradius 42.0717
rwrist 1.35112
rhand -12.6431 -38.5962
rfingers 7.12502
rthumb 13.4372 -68.1428
lclavicle -4.81556e-014 1.59028e-014
lhumerus -28.2006 -5.81341 87.0975
lradius 40.2724
lwrist -8.13029
lhand -25.9766 21.5801
lfingers 7.12502
lthumb 0.568338 51.5591
rfemur -62.3491 -11.9373 14.9149
rtibia 71.7842
rfoot -12.9491 14.1854
rtoes 0.845027
lfemur 14.1808 1.98538 -13.2246
ltibia 33.6133
lfoot -33.0533 37.4837
ltoes -21.2182
1071
root -2.31514 13.8981 25.0817 6.19264 13.1523 0.381279
lowerback 9.99173 -4.04087 -10.6363
upperback -1.71613 -6.56848 2.54362
thorax -5.95534 -2.81292 9.63856
lowerneck 9.97854 -17.8274 -17.9457
upperneck 5.03643 -26.4279 17.2409
head 4.61244 -13.547 6.68554
rclavicle -9.61621e-014 1.25234e-014
rhumerus -35.6757 14.5155 -76.2333
rradius 41.9785
rwrist 1.36774
rhand -12.6759 -38.5677
rfingers 7.12502
rthumb 13.4056 -68.1164
lclavicle -9.61621e-014 1.25234e-014
lhumerus -28.252 -5.68811 87.1171
lradius 40.2799
lwrist -8.28145
lhand -25.9501 21.5852
lfingers 7.12502
lthumb 0.593978 51.5641
rfemur -62.3607 -11.9209 14.907
rtibia 71.7917
rfoot -12.9327 14.2244
rtoes 1.04646
lfemur 14.1958 1.99315 -13.2449
ltibia 33.6151
lfoot -33.0799 37.5067
ltoes -21.1943
1072
root -2.3133 13.8961 25.0825 6.19962 13.131 0.400429
lowerback 9.9611 -4.02255 -10.6478
upperback -1.69631 -6.54151 2.53565
thorax -5.92256 -2.80267 9.62887
lowerneck 9.95578 -17.8273 -17.9445
upperneck 5.0534 -26.4272 17.2494
head 4.62211 -13.5453 6.6848
rclavicle -2.80535e-014 -3.02153e-014
rhumerus -35.712 14.445 -76.2154
rradius 41.9168
rwrist 1.41919
rhand -13.002 -38.1934
rfingers 7.12502
rthumb 13.0913 -67.7625
lclavicle -2.80535e-014 -3.02153e-014
lhumerus -28.2291 -5.81397 87.1724
lradius 40.19
lwrist -8.23075
lhand -25.945 21.5342
lfingers 7.12502
lthumb 0.598854 51.5131
rfemur -62.3718 -11.9327 14.8896
rtibia 71.8024
rfoot -12.9706 14.2334
rtoes 1.03381
lfemur 14.2057 2.00431 -13.2819
ltibia 33.6103
lfoot -33.0594 37.5497
ltoes -21.2596
1073
root -2.31277 13.8958 25.0816 6.20481 13.1117 0.369834
lowerback 9.94335 -4.00334 -10.637
upperback -1.67576 -6.5109 2.54488
thorax -5.89744 -2.79062 9.62642
lowerneck 9.93619 -17.829 -17.9033
upperneck 5.05443 -26.4217 17.2431
head 4.6182 -13.5409 6.6776
rclavicle 1.87603e-014 3.57812e-015
rhumerus -35.7238 14.4039 -76.2106
rradius 41.8524
rwrist 1.41606
rhand -12.7218 -38.3895
rfingers 7.12502
rthumb 13.3613 -67.9411
lclavicle 1.87603e-014 3.57812e-015
lhumerus -28.2142 -5.81487 87.1979
lradius 40.1529
lwrist -8.29045
lhand -25.8789 21.5211
lfingers 7.12502
lthumb 0.662694 51.4998
rfemur -62.3839 -11.8993 14.9153
rtibia 71.8063
rfoot -12.9775 14.2084
rtoes 0.986802
lfemur 14.208 2.00328 -13.2635
ltibia 33.5942
lfoot -33.0952 37.5387
ltoes -21.1737
1074
root -2.31108 13.8955 25.0813 6.21234 13.1008 0.370675
lowerback 9.91832 -3.99522 -10.6389
upperback -1.65345 -6.49614 2.54838
thorax -5.86189 -2.78693 9.62544
lowerneck 9.92684 -17.8227 -17.9057
upperneck 5.05136 -26.409 17.2252
head 4.61424 -13.5342 6.67379
rclavicle 4.33351e-014 5.96354e-016
rhumerus -35.7322 14.3852 -76.2133
rradius 41.806
rwrist 1.44039
rhand -12.5575 -38.6344
rfingers 7.12502
rthumb 13.5198 -68.1755
lclavicle 4.33351e-014 5.96354e-016
lhumerus -28.1976 -5.86243 87.23
lradius 40.0981
lwrist -8.32094
lhand -25.8273 21.5964
lfingers 7.12502
lthumb 0.712556 51.5749
rfemur -62.3934 -11.9099 14.9135
rtibia 71.803
rfoot -12.9726 14.2529
rtoes 1.06468
lfemur 14.2042 2.00644 -13.2792
ltibia 33.5903
lfoot -33.0871 37.5653
ltoes -21.1601
